# xmcd
#
# Track frame offsets:
#	150
#	18581
#	44985
#	64416
#	88984
#	108965
#	132227
#	148457
#	170862
#	189471
#
# Disc length: 2803 seconds
#
# Revision: 1
# Processed by: cddbd v1.4PL0 Copyright (c) Steve Scherf et al.
# Submitted via: audiograbber 1.81.03
#
DISCID=a40af10a
DTITLE=Lisa Hayes - Where Angels Fear To Go
DYEAR=2003
DGENRE=
TTITLE0=Are You Still Mine
TTITLE1=Ghosts
TTITLE2=Love
TTITLE3=Where Angels Fear To Go
TTITLE4=Hey Mr. Morning
TTITLE5=Right Now
TTITLE6=Cause of Faith
TTITLE7=Real Thang
TTITLE8=Gone Gone Gone
TTITLE9=Sweet Forgiveness
EXTD=
EXTT0=
EXTT1=
EXTT2=
EXTT3=
EXTT4=
EXTT5=
EXTT6=
EXTT7=
EXTT8=
EXTT9=
PLAYORDER=
